G75*
G70*
%OFA0B0*%
%FSLAX24Y24*%
%IPPOS*%
%LPD*%
%AMOC8*
5,1,8,0,0,1.08239X$1,22.5*
%
%ADD10C,0.0000*%
%ADD11C,0.0827*%
%ADD12C,0.0520*%
%ADD13C,0.0740*%
%ADD14OC8,0.1000*%
%ADD15C,0.0660*%
%ADD16R,0.0650X0.0650*%
%ADD17C,0.0650*%
%ADD18C,0.0520*%
%ADD19C,0.0800*%
%ADD20C,0.0100*%
%ADD21C,0.0400*%
D10*
X001199Y000101D02*
X001199Y031101D01*
X040199Y031101D01*
X040199Y000101D01*
X001199Y000101D01*
X002049Y001601D02*
X002051Y001651D01*
X002057Y001701D01*
X002067Y001751D01*
X002080Y001799D01*
X002097Y001847D01*
X002118Y001893D01*
X002142Y001937D01*
X002170Y001979D01*
X002201Y002019D01*
X002235Y002056D01*
X002272Y002091D01*
X002311Y002122D01*
X002352Y002151D01*
X002396Y002176D01*
X002442Y002198D01*
X002489Y002216D01*
X002537Y002230D01*
X002586Y002241D01*
X002636Y002248D01*
X002686Y002251D01*
X002737Y002250D01*
X002787Y002245D01*
X002837Y002236D01*
X002885Y002224D01*
X002933Y002207D01*
X002979Y002187D01*
X003024Y002164D01*
X003067Y002137D01*
X003107Y002107D01*
X003145Y002074D01*
X003180Y002038D01*
X003213Y001999D01*
X003242Y001958D01*
X003268Y001915D01*
X003291Y001870D01*
X003310Y001823D01*
X003325Y001775D01*
X003337Y001726D01*
X003345Y001676D01*
X003349Y001626D01*
X003349Y001576D01*
X003345Y001526D01*
X003337Y001476D01*
X003325Y001427D01*
X003310Y001379D01*
X003291Y001332D01*
X003268Y001287D01*
X003242Y001244D01*
X003213Y001203D01*
X003180Y001164D01*
X003145Y001128D01*
X003107Y001095D01*
X003067Y001065D01*
X003024Y001038D01*
X002979Y001015D01*
X002933Y000995D01*
X002885Y000978D01*
X002837Y000966D01*
X002787Y000957D01*
X002737Y000952D01*
X002686Y000951D01*
X002636Y000954D01*
X002586Y000961D01*
X002537Y000972D01*
X002489Y000986D01*
X002442Y001004D01*
X002396Y001026D01*
X002352Y001051D01*
X002311Y001080D01*
X002272Y001111D01*
X002235Y001146D01*
X002201Y001183D01*
X002170Y001223D01*
X002142Y001265D01*
X002118Y001309D01*
X002097Y001355D01*
X002080Y001403D01*
X002067Y001451D01*
X002057Y001501D01*
X002051Y001551D01*
X002049Y001601D01*
X002549Y025001D02*
X002551Y025051D01*
X002557Y025101D01*
X002567Y025151D01*
X002580Y025199D01*
X002597Y025247D01*
X002618Y025293D01*
X002642Y025337D01*
X002670Y025379D01*
X002701Y025419D01*
X002735Y025456D01*
X002772Y025491D01*
X002811Y025522D01*
X002852Y025551D01*
X002896Y025576D01*
X002942Y025598D01*
X002989Y025616D01*
X003037Y025630D01*
X003086Y025641D01*
X003136Y025648D01*
X003186Y025651D01*
X003237Y025650D01*
X003287Y025645D01*
X003337Y025636D01*
X003385Y025624D01*
X003433Y025607D01*
X003479Y025587D01*
X003524Y025564D01*
X003567Y025537D01*
X003607Y025507D01*
X003645Y025474D01*
X003680Y025438D01*
X003713Y025399D01*
X003742Y025358D01*
X003768Y025315D01*
X003791Y025270D01*
X003810Y025223D01*
X003825Y025175D01*
X003837Y025126D01*
X003845Y025076D01*
X003849Y025026D01*
X003849Y024976D01*
X003845Y024926D01*
X003837Y024876D01*
X003825Y024827D01*
X003810Y024779D01*
X003791Y024732D01*
X003768Y024687D01*
X003742Y024644D01*
X003713Y024603D01*
X003680Y024564D01*
X003645Y024528D01*
X003607Y024495D01*
X003567Y024465D01*
X003524Y024438D01*
X003479Y024415D01*
X003433Y024395D01*
X003385Y024378D01*
X003337Y024366D01*
X003287Y024357D01*
X003237Y024352D01*
X003186Y024351D01*
X003136Y024354D01*
X003086Y024361D01*
X003037Y024372D01*
X002989Y024386D01*
X002942Y024404D01*
X002896Y024426D01*
X002852Y024451D01*
X002811Y024480D01*
X002772Y024511D01*
X002735Y024546D01*
X002701Y024583D01*
X002670Y024623D01*
X002642Y024665D01*
X002618Y024709D01*
X002597Y024755D01*
X002580Y024803D01*
X002567Y024851D01*
X002557Y024901D01*
X002551Y024951D01*
X002549Y025001D01*
X002549Y029601D02*
X002551Y029651D01*
X002557Y029701D01*
X002567Y029751D01*
X002580Y029799D01*
X002597Y029847D01*
X002618Y029893D01*
X002642Y029937D01*
X002670Y029979D01*
X002701Y030019D01*
X002735Y030056D01*
X002772Y030091D01*
X002811Y030122D01*
X002852Y030151D01*
X002896Y030176D01*
X002942Y030198D01*
X002989Y030216D01*
X003037Y030230D01*
X003086Y030241D01*
X003136Y030248D01*
X003186Y030251D01*
X003237Y030250D01*
X003287Y030245D01*
X003337Y030236D01*
X003385Y030224D01*
X003433Y030207D01*
X003479Y030187D01*
X003524Y030164D01*
X003567Y030137D01*
X003607Y030107D01*
X003645Y030074D01*
X003680Y030038D01*
X003713Y029999D01*
X003742Y029958D01*
X003768Y029915D01*
X003791Y029870D01*
X003810Y029823D01*
X003825Y029775D01*
X003837Y029726D01*
X003845Y029676D01*
X003849Y029626D01*
X003849Y029576D01*
X003845Y029526D01*
X003837Y029476D01*
X003825Y029427D01*
X003810Y029379D01*
X003791Y029332D01*
X003768Y029287D01*
X003742Y029244D01*
X003713Y029203D01*
X003680Y029164D01*
X003645Y029128D01*
X003607Y029095D01*
X003567Y029065D01*
X003524Y029038D01*
X003479Y029015D01*
X003433Y028995D01*
X003385Y028978D01*
X003337Y028966D01*
X003287Y028957D01*
X003237Y028952D01*
X003186Y028951D01*
X003136Y028954D01*
X003086Y028961D01*
X003037Y028972D01*
X002989Y028986D01*
X002942Y029004D01*
X002896Y029026D01*
X002852Y029051D01*
X002811Y029080D01*
X002772Y029111D01*
X002735Y029146D01*
X002701Y029183D01*
X002670Y029223D01*
X002642Y029265D01*
X002618Y029309D01*
X002597Y029355D01*
X002580Y029403D01*
X002567Y029451D01*
X002557Y029501D01*
X002551Y029551D01*
X002549Y029601D01*
X008270Y029613D02*
X008272Y029646D01*
X008278Y029678D01*
X008287Y029709D01*
X008300Y029739D01*
X008317Y029767D01*
X008337Y029793D01*
X008360Y029817D01*
X008385Y029837D01*
X008413Y029855D01*
X008442Y029869D01*
X008473Y029879D01*
X008505Y029886D01*
X008538Y029889D01*
X008571Y029888D01*
X008603Y029883D01*
X008634Y029874D01*
X008665Y029862D01*
X008693Y029846D01*
X008720Y029827D01*
X008744Y029805D01*
X008765Y029780D01*
X008784Y029753D01*
X008799Y029724D01*
X008810Y029694D01*
X008818Y029662D01*
X008822Y029629D01*
X008822Y029597D01*
X008818Y029564D01*
X008810Y029532D01*
X008799Y029502D01*
X008784Y029473D01*
X008765Y029446D01*
X008744Y029421D01*
X008720Y029399D01*
X008693Y029380D01*
X008665Y029364D01*
X008634Y029352D01*
X008603Y029343D01*
X008571Y029338D01*
X008538Y029337D01*
X008505Y029340D01*
X008473Y029347D01*
X008442Y029357D01*
X008413Y029371D01*
X008385Y029389D01*
X008360Y029409D01*
X008337Y029433D01*
X008317Y029459D01*
X008300Y029487D01*
X008287Y029517D01*
X008278Y029548D01*
X008272Y029580D01*
X008270Y029613D01*
X012203Y029613D02*
X012205Y029646D01*
X012211Y029678D01*
X012220Y029709D01*
X012233Y029739D01*
X012250Y029767D01*
X012270Y029793D01*
X012293Y029817D01*
X012318Y029837D01*
X012346Y029855D01*
X012375Y029869D01*
X012406Y029879D01*
X012438Y029886D01*
X012471Y029889D01*
X012504Y029888D01*
X012536Y029883D01*
X012567Y029874D01*
X012598Y029862D01*
X012626Y029846D01*
X012653Y029827D01*
X012677Y029805D01*
X012698Y029780D01*
X012717Y029753D01*
X012732Y029724D01*
X012743Y029694D01*
X012751Y029662D01*
X012755Y029629D01*
X012755Y029597D01*
X012751Y029564D01*
X012743Y029532D01*
X012732Y029502D01*
X012717Y029473D01*
X012698Y029446D01*
X012677Y029421D01*
X012653Y029399D01*
X012626Y029380D01*
X012598Y029364D01*
X012567Y029352D01*
X012536Y029343D01*
X012504Y029338D01*
X012471Y029337D01*
X012438Y029340D01*
X012406Y029347D01*
X012375Y029357D01*
X012346Y029371D01*
X012318Y029389D01*
X012293Y029409D01*
X012270Y029433D01*
X012250Y029459D01*
X012233Y029487D01*
X012220Y029517D01*
X012211Y029548D01*
X012205Y029580D01*
X012203Y029613D01*
X037549Y029601D02*
X037551Y029651D01*
X037557Y029701D01*
X037567Y029751D01*
X037580Y029799D01*
X037597Y029847D01*
X037618Y029893D01*
X037642Y029937D01*
X037670Y029979D01*
X037701Y030019D01*
X037735Y030056D01*
X037772Y030091D01*
X037811Y030122D01*
X037852Y030151D01*
X037896Y030176D01*
X037942Y030198D01*
X037989Y030216D01*
X038037Y030230D01*
X038086Y030241D01*
X038136Y030248D01*
X038186Y030251D01*
X038237Y030250D01*
X038287Y030245D01*
X038337Y030236D01*
X038385Y030224D01*
X038433Y030207D01*
X038479Y030187D01*
X038524Y030164D01*
X038567Y030137D01*
X038607Y030107D01*
X038645Y030074D01*
X038680Y030038D01*
X038713Y029999D01*
X038742Y029958D01*
X038768Y029915D01*
X038791Y029870D01*
X038810Y029823D01*
X038825Y029775D01*
X038837Y029726D01*
X038845Y029676D01*
X038849Y029626D01*
X038849Y029576D01*
X038845Y029526D01*
X038837Y029476D01*
X038825Y029427D01*
X038810Y029379D01*
X038791Y029332D01*
X038768Y029287D01*
X038742Y029244D01*
X038713Y029203D01*
X038680Y029164D01*
X038645Y029128D01*
X038607Y029095D01*
X038567Y029065D01*
X038524Y029038D01*
X038479Y029015D01*
X038433Y028995D01*
X038385Y028978D01*
X038337Y028966D01*
X038287Y028957D01*
X038237Y028952D01*
X038186Y028951D01*
X038136Y028954D01*
X038086Y028961D01*
X038037Y028972D01*
X037989Y028986D01*
X037942Y029004D01*
X037896Y029026D01*
X037852Y029051D01*
X037811Y029080D01*
X037772Y029111D01*
X037735Y029146D01*
X037701Y029183D01*
X037670Y029223D01*
X037642Y029265D01*
X037618Y029309D01*
X037597Y029355D01*
X037580Y029403D01*
X037567Y029451D01*
X037557Y029501D01*
X037551Y029551D01*
X037549Y029601D01*
X038049Y001601D02*
X038051Y001651D01*
X038057Y001701D01*
X038067Y001751D01*
X038080Y001799D01*
X038097Y001847D01*
X038118Y001893D01*
X038142Y001937D01*
X038170Y001979D01*
X038201Y002019D01*
X038235Y002056D01*
X038272Y002091D01*
X038311Y002122D01*
X038352Y002151D01*
X038396Y002176D01*
X038442Y002198D01*
X038489Y002216D01*
X038537Y002230D01*
X038586Y002241D01*
X038636Y002248D01*
X038686Y002251D01*
X038737Y002250D01*
X038787Y002245D01*
X038837Y002236D01*
X038885Y002224D01*
X038933Y002207D01*
X038979Y002187D01*
X039024Y002164D01*
X039067Y002137D01*
X039107Y002107D01*
X039145Y002074D01*
X039180Y002038D01*
X039213Y001999D01*
X039242Y001958D01*
X039268Y001915D01*
X039291Y001870D01*
X039310Y001823D01*
X039325Y001775D01*
X039337Y001726D01*
X039345Y001676D01*
X039349Y001626D01*
X039349Y001576D01*
X039345Y001526D01*
X039337Y001476D01*
X039325Y001427D01*
X039310Y001379D01*
X039291Y001332D01*
X039268Y001287D01*
X039242Y001244D01*
X039213Y001203D01*
X039180Y001164D01*
X039145Y001128D01*
X039107Y001095D01*
X039067Y001065D01*
X039024Y001038D01*
X038979Y001015D01*
X038933Y000995D01*
X038885Y000978D01*
X038837Y000966D01*
X038787Y000957D01*
X038737Y000952D01*
X038686Y000951D01*
X038636Y000954D01*
X038586Y000961D01*
X038537Y000972D01*
X038489Y000986D01*
X038442Y001004D01*
X038396Y001026D01*
X038352Y001051D01*
X038311Y001080D01*
X038272Y001111D01*
X038235Y001146D01*
X038201Y001183D01*
X038170Y001223D01*
X038142Y001265D01*
X038118Y001309D01*
X038097Y001355D01*
X038080Y001403D01*
X038067Y001451D01*
X038057Y001501D01*
X038051Y001551D01*
X038049Y001601D01*
D11*
X012483Y024691D03*
X013483Y025683D03*
X010518Y025680D03*
X008546Y024687D03*
X007573Y025683D03*
D12*
X015939Y025601D02*
X016459Y025601D01*
X016459Y026601D02*
X015939Y026601D01*
X015939Y027601D02*
X016459Y027601D01*
X016459Y028601D02*
X015939Y028601D01*
X015939Y029601D02*
X016459Y029601D01*
X018939Y029601D02*
X019459Y029601D01*
X019459Y028601D02*
X018939Y028601D01*
X018939Y027601D02*
X019459Y027601D01*
X019459Y026601D02*
X018939Y026601D01*
X018939Y025601D02*
X019459Y025601D01*
X019459Y024601D02*
X018939Y024601D01*
X018939Y023601D02*
X019459Y023601D01*
X019459Y022601D02*
X018939Y022601D01*
X018939Y021601D02*
X019459Y021601D01*
X019459Y020601D02*
X018939Y020601D01*
X018939Y019601D02*
X019459Y019601D01*
X019459Y018601D02*
X018939Y018601D01*
X018939Y017601D02*
X019459Y017601D01*
X019459Y016601D02*
X018939Y016601D01*
X016459Y016601D02*
X015939Y016601D01*
X015939Y017601D02*
X016459Y017601D01*
X016459Y018601D02*
X015939Y018601D01*
X015939Y019601D02*
X016459Y019601D01*
X016459Y020601D02*
X015939Y020601D01*
X015939Y021601D02*
X016459Y021601D01*
X016459Y022601D02*
X015939Y022601D01*
X015939Y023601D02*
X016459Y023601D01*
X016459Y024601D02*
X015939Y024601D01*
X023939Y024101D02*
X024459Y024101D01*
X024459Y025101D02*
X023939Y025101D01*
X023939Y026101D02*
X024459Y026101D01*
X024459Y027101D02*
X023939Y027101D01*
X023939Y028101D02*
X024459Y028101D01*
X024459Y029101D02*
X023939Y029101D01*
X026939Y029101D02*
X027459Y029101D01*
X027459Y028101D02*
X026939Y028101D01*
X026939Y027101D02*
X027459Y027101D01*
X027459Y026101D02*
X026939Y026101D01*
X026939Y025101D02*
X027459Y025101D01*
X027459Y024101D02*
X026939Y024101D01*
X026939Y023101D02*
X027459Y023101D01*
X027459Y022101D02*
X026939Y022101D01*
X024459Y022101D02*
X023939Y022101D01*
X023939Y023101D02*
X024459Y023101D01*
X024439Y019601D02*
X024959Y019601D01*
X024959Y018601D02*
X024439Y018601D01*
X024439Y017601D02*
X024959Y017601D01*
X024959Y016601D02*
X024439Y016601D01*
X024439Y015601D02*
X024959Y015601D01*
X024959Y014601D02*
X024439Y014601D01*
X024439Y013601D02*
X024959Y013601D01*
X024959Y012601D02*
X024439Y012601D01*
X027439Y012601D02*
X027959Y012601D01*
X027959Y013601D02*
X027439Y013601D01*
X027439Y014601D02*
X027959Y014601D01*
X027959Y015601D02*
X027439Y015601D01*
X027439Y016601D02*
X027959Y016601D01*
X027959Y017601D02*
X027439Y017601D01*
X027439Y018601D02*
X027959Y018601D01*
X027959Y019601D02*
X027439Y019601D01*
D13*
X032699Y020101D03*
X032699Y021101D03*
X032699Y022601D03*
X032699Y023601D03*
X032699Y024601D03*
X032699Y025601D03*
X032699Y027101D03*
X032699Y028101D03*
X032699Y029101D03*
X032699Y030101D03*
X035699Y030101D03*
X035699Y029101D03*
X035699Y028101D03*
X035699Y027101D03*
X035699Y025601D03*
X035699Y024601D03*
X035699Y023601D03*
X035699Y022601D03*
X035699Y021101D03*
X035699Y020101D03*
X035699Y019101D03*
X035699Y018101D03*
X035699Y017101D03*
X035699Y016101D03*
X035699Y015101D03*
X035699Y014101D03*
X032699Y014101D03*
X032699Y015101D03*
X032699Y016101D03*
X032699Y017101D03*
X032699Y018101D03*
X032699Y019101D03*
X032199Y007171D03*
X032199Y006101D03*
X032199Y005031D03*
X030199Y005031D03*
X030199Y006101D03*
X030199Y007171D03*
X028199Y007171D03*
X028199Y006101D03*
X028199Y005031D03*
X026199Y005031D03*
X026199Y006101D03*
X026199Y007171D03*
X024199Y007171D03*
X024199Y006101D03*
X024199Y005031D03*
X022199Y005031D03*
X022199Y006101D03*
X022199Y007171D03*
X020199Y007171D03*
X020199Y006101D03*
X020199Y005031D03*
X018199Y005031D03*
X018199Y006101D03*
X018199Y007171D03*
X016199Y007171D03*
X016199Y006101D03*
X016199Y005031D03*
X014199Y005031D03*
X014199Y006101D03*
X014199Y007171D03*
X012199Y007171D03*
X012199Y006101D03*
X012199Y005031D03*
X010199Y005031D03*
X010199Y006101D03*
X010199Y007171D03*
X008199Y007171D03*
X008199Y006101D03*
X008199Y005031D03*
X006199Y005031D03*
X006199Y006101D03*
X006199Y007171D03*
X013699Y018601D03*
X013699Y021601D03*
X034199Y007171D03*
X034199Y006101D03*
X034199Y005031D03*
X036199Y005031D03*
X036199Y006101D03*
X036199Y007171D03*
X038199Y007171D03*
X038199Y006101D03*
X038199Y005031D03*
D14*
X002199Y005101D03*
X002199Y008101D03*
D15*
X002199Y018771D02*
X002199Y019431D01*
X003199Y019431D02*
X003199Y018771D01*
X004199Y018771D02*
X004199Y019431D01*
D16*
X003699Y016101D03*
X003699Y012101D03*
D17*
X002699Y012101D03*
X002699Y016101D03*
D18*
X009199Y019151D03*
X009199Y021051D03*
D19*
X008199Y015651D03*
X008199Y014551D03*
X006199Y014551D03*
X006199Y015651D03*
D20*
X006239Y015701D01*
X006239Y018021D01*
X009199Y020981D01*
X009199Y021051D01*
X009199Y019151D02*
X009199Y019141D01*
X008239Y018181D01*
X008239Y015701D01*
X008199Y015651D01*
X008799Y014741D02*
X008799Y008661D01*
X006239Y006101D01*
X006199Y006101D01*
X006239Y005061D02*
X006199Y005031D01*
X006239Y005061D02*
X008159Y005061D01*
X008199Y005031D01*
X008239Y005061D01*
X010159Y005061D01*
X010199Y005031D01*
X010239Y006101D02*
X010199Y006101D01*
X010239Y006101D02*
X011839Y004501D01*
X017679Y004501D01*
X017679Y011541D01*
X023119Y016981D01*
X022239Y016581D02*
X017439Y011781D01*
X017439Y007301D01*
X016239Y006101D01*
X016199Y006101D01*
X016159Y005061D02*
X016199Y005031D01*
X016159Y005061D02*
X014239Y005061D01*
X014199Y005031D01*
X014159Y005061D01*
X012239Y005061D01*
X012199Y005031D01*
X012159Y005061D01*
X011679Y005541D01*
X011679Y007381D01*
X013439Y009141D01*
X013439Y018341D01*
X013699Y018601D01*
X013199Y018821D02*
X013519Y019141D01*
X021199Y019141D01*
X023119Y020581D02*
X023119Y026581D01*
X023599Y027061D01*
X024159Y027061D01*
X024199Y027101D01*
X023519Y026501D02*
X023519Y014341D01*
X023599Y014421D01*
X023519Y014341D02*
X021999Y012821D01*
X021999Y007861D01*
X022159Y007221D02*
X022199Y007171D01*
X022239Y007221D01*
X024159Y007221D01*
X024199Y007171D01*
X024239Y007221D01*
X024239Y012181D01*
X024639Y012581D01*
X024699Y012601D01*
X023999Y013301D01*
X023999Y021941D01*
X024159Y022101D01*
X024199Y022101D01*
X023119Y020581D02*
X019199Y016661D01*
X019199Y016601D01*
X014239Y020181D02*
X008799Y014741D01*
X008199Y014551D02*
X008159Y014581D01*
X006239Y014581D01*
X006199Y014551D01*
X004159Y012501D02*
X004159Y019061D01*
X004199Y019101D01*
X003199Y019061D02*
X003199Y019101D01*
X003199Y019061D02*
X002719Y018581D01*
X002719Y016101D01*
X002699Y016101D01*
X002719Y016101D02*
X002719Y012101D01*
X002699Y012101D01*
X003699Y012101D02*
X003759Y012101D01*
X004159Y012501D01*
X003199Y015621D02*
X003679Y016101D01*
X003699Y016101D01*
X003199Y015621D02*
X003199Y009061D01*
X002239Y008101D01*
X002199Y008101D01*
X008199Y006101D02*
X008239Y006101D01*
X013199Y011061D01*
X013199Y018821D01*
X014239Y020181D02*
X014239Y024661D01*
X016159Y026581D01*
X016199Y026601D01*
X013519Y025621D02*
X013483Y025683D01*
X013519Y025621D02*
X013519Y021781D01*
X013699Y021601D01*
X019199Y021601D02*
X019199Y022601D01*
X025119Y024021D02*
X025119Y027861D01*
X027359Y030101D01*
X032699Y030101D01*
X030959Y029541D02*
X032159Y028341D01*
X032159Y026901D01*
X033199Y025861D01*
X033199Y021621D01*
X032719Y021141D01*
X032699Y021101D01*
X032719Y021061D01*
X033919Y019861D01*
X033919Y008821D01*
X031119Y008821D01*
X029679Y007381D01*
X029679Y006661D01*
X030399Y006661D01*
X030719Y006341D01*
X030719Y004501D01*
X025839Y004501D01*
X024239Y006101D01*
X024199Y006101D01*
X024399Y006661D02*
X018239Y006661D01*
X018239Y006101D01*
X018199Y006101D01*
X018239Y005061D02*
X018199Y005031D01*
X018239Y005061D02*
X020159Y005061D01*
X020199Y005031D01*
X020239Y005061D01*
X022159Y005061D01*
X022199Y005031D01*
X022239Y005061D01*
X024159Y005061D01*
X024199Y005031D01*
X025679Y005541D02*
X025679Y009221D01*
X028639Y012181D01*
X028639Y017381D01*
X028399Y017621D01*
X028399Y017781D01*
X028799Y018181D01*
X028799Y024501D01*
X028399Y024901D01*
X029439Y024581D02*
X031599Y026741D01*
X031599Y026821D01*
X030479Y027941D01*
X030399Y028341D02*
X031839Y028341D01*
X031839Y026421D01*
X032639Y025621D01*
X032699Y025601D01*
X031599Y026741D02*
X031599Y021061D01*
X031199Y020581D02*
X031199Y024101D01*
X030799Y024021D02*
X030799Y017701D01*
X030319Y017701D02*
X030319Y024021D01*
X029839Y024501D01*
X029439Y024581D02*
X029439Y018021D01*
X029199Y017781D01*
X029199Y006661D01*
X027999Y006661D01*
X027679Y006341D01*
X027679Y006101D01*
X026199Y006101D01*
X025679Y005541D02*
X029599Y005541D01*
X030159Y006101D01*
X030199Y006101D01*
X029439Y006101D02*
X028199Y006101D01*
X028239Y005061D02*
X028199Y005031D01*
X028159Y005061D01*
X026239Y005061D01*
X026199Y005031D01*
X028239Y005061D02*
X030159Y005061D01*
X030199Y005031D01*
X029439Y006101D02*
X029439Y009941D01*
X031919Y012421D01*
X031919Y018341D01*
X032639Y019061D01*
X032699Y019101D01*
X032159Y020261D02*
X032159Y024101D01*
X032639Y024581D01*
X032699Y024601D01*
X034319Y025461D02*
X034319Y013701D01*
X035679Y014101D02*
X035699Y014101D01*
X035679Y014101D02*
X035679Y007221D01*
X034239Y007221D01*
X034199Y007171D01*
X034159Y007221D01*
X032239Y007221D01*
X032199Y007171D01*
X032159Y007221D01*
X030239Y007221D01*
X030199Y007171D01*
X028199Y007171D02*
X028159Y007221D01*
X026239Y007221D01*
X026199Y007171D01*
X025359Y007621D02*
X024399Y006661D01*
X025359Y007621D02*
X025359Y014901D01*
X024719Y015541D01*
X024699Y015601D01*
X025919Y016821D01*
X025919Y027701D01*
X026159Y027941D01*
X027199Y029061D02*
X027199Y029101D01*
X027199Y029061D02*
X027919Y028341D01*
X027919Y019781D01*
X027759Y019621D01*
X027699Y019601D01*
X026479Y019381D02*
X026479Y023381D01*
X027199Y024101D01*
X025599Y024021D02*
X025599Y016981D01*
X025519Y016901D01*
X025359Y017301D02*
X025359Y023781D01*
X025119Y024021D01*
X025519Y024101D02*
X025599Y024021D01*
X027199Y022101D02*
X027039Y021941D01*
X027039Y013301D01*
X027679Y012661D01*
X027699Y012601D01*
X028399Y012421D02*
X028399Y015941D01*
X027759Y016581D01*
X027699Y016601D01*
X028799Y017701D02*
X029199Y018101D01*
X029199Y027141D01*
X030399Y028341D01*
X032699Y027101D02*
X032719Y027061D01*
X034319Y025461D01*
X035679Y025541D02*
X035679Y024661D01*
X035699Y024601D01*
X035679Y024581D01*
X035679Y023621D01*
X035699Y023601D01*
X035679Y023541D01*
X035679Y022661D01*
X035699Y022601D01*
X035679Y022581D01*
X035679Y021141D01*
X035699Y021101D01*
X035679Y021061D01*
X035679Y020101D01*
X035699Y020101D01*
X035679Y020101D02*
X035679Y019141D01*
X035699Y019101D01*
X035679Y019061D01*
X035679Y018101D01*
X035699Y018101D01*
X035679Y018101D02*
X035679Y017141D01*
X035699Y017101D01*
X035679Y017061D01*
X035679Y016101D01*
X035699Y016101D01*
X035679Y016101D02*
X035679Y015141D01*
X035699Y015101D01*
X035679Y015061D01*
X035679Y014101D01*
X033519Y015301D02*
X032719Y016101D01*
X032699Y016101D01*
X032159Y016581D02*
X032639Y017061D01*
X032699Y017101D01*
X032159Y016581D02*
X032159Y011061D01*
X031599Y010501D01*
X029839Y010821D02*
X031439Y012421D01*
X031439Y019541D01*
X032159Y020261D01*
X030799Y024021D02*
X030719Y024101D01*
X035679Y025541D02*
X035699Y025601D01*
X035679Y025621D01*
X035679Y027061D01*
X035699Y027101D01*
X035679Y027141D01*
X035679Y028101D01*
X035699Y028101D01*
X035679Y028101D02*
X035679Y029061D01*
X035699Y029101D01*
X035679Y029141D01*
X035679Y030101D01*
X035699Y030101D01*
X025359Y017301D02*
X024719Y016661D01*
X024699Y016601D01*
X028399Y012421D02*
X026399Y010421D01*
X022159Y007221D02*
X020239Y007221D01*
X020199Y007171D01*
X020159Y007221D01*
X018239Y007221D01*
X018199Y007171D01*
X016199Y007171D02*
X016159Y007221D01*
X014239Y007221D01*
X014199Y007171D01*
X014159Y007221D01*
X012239Y007221D01*
X012199Y007171D01*
X032199Y005031D02*
X032239Y005061D01*
X034159Y005061D01*
X034199Y005031D01*
X034239Y005061D01*
X036159Y005061D01*
X036199Y005031D01*
X036239Y005061D01*
X038159Y005061D01*
X038199Y005031D01*
X038199Y007171D02*
X038159Y007221D01*
X036239Y007221D01*
X036199Y007171D01*
X036159Y007221D01*
X035679Y007221D01*
X033519Y011301D02*
X033519Y015301D01*
X033199Y014581D02*
X032719Y015061D01*
X032699Y015101D01*
X033199Y014581D02*
X033199Y012101D01*
X033119Y012021D01*
D21*
X033119Y012021D03*
X033519Y011301D03*
X031599Y010501D03*
X029839Y010821D03*
X026399Y010421D03*
X021999Y007861D03*
X023599Y014421D03*
X022239Y016581D03*
X023119Y016981D03*
X025519Y016901D03*
X026479Y019381D03*
X028799Y018181D03*
X028799Y017701D03*
X030319Y017701D03*
X030799Y017701D03*
X031439Y019541D03*
X031199Y020581D03*
X031599Y021061D03*
X031199Y024101D03*
X030719Y024101D03*
X029839Y024501D03*
X028399Y024901D03*
X025519Y024101D03*
X023519Y026501D03*
X026159Y027941D03*
X030479Y027941D03*
X030959Y029541D03*
X021199Y019141D03*
X034319Y013701D03*
M02*
