%
M48
M72
T01C0.0240
T02C0.0276
T03C0.0320
T04C0.0354
T05C0.0400
T06C0.0440
T07C0.0551
T08C0.1300
%
T01
X21999Y7861
X26399Y10421
X29839Y10821
X31599Y10501
X33519Y11301
X33119Y12021
X34319Y13701
X30799Y17701
X30319Y17701
X28799Y17701
X28799Y18181
X26479Y19381
X25519Y16901
X23119Y16981
X22239Y16581
X23599Y14421
X21199Y19141
X25519Y24101
X28399Y24901
X29839Y24501
X30719Y24101
X31199Y24101
X31599Y21061
X31199Y20581
X31439Y19541
X23519Y26501
X26159Y27941
X30479Y27941
X30959Y29541
T02
X3699Y16101
X2699Y16101
X2699Y12101
X3699Y12101
T03
X9199Y19151
X9199Y21051
X16199Y20601
X16199Y21601
X16199Y22601
X16199Y23601
X16199Y24601
X16199Y25601
X16199Y26601
X16199Y27601
X16199Y28601
X16199Y29601
X19199Y29601
X19199Y28601
X19199Y27601
X19199Y26601
X19199Y25601
X19199Y24601
X19199Y23601
X19199Y22601
X19199Y21601
X19199Y20601
X19199Y19601
X19199Y18601
X19199Y17601
X19199Y16601
X16199Y16601
X16199Y17601
X16199Y18601
X16199Y19601
X24199Y22101
X24199Y23101
X24199Y24101
X24199Y25101
X24199Y26101
X24199Y27101
X24199Y28101
X24199Y29101
X27199Y29101
X27199Y28101
X27199Y27101
X27199Y26101
X27199Y25101
X27199Y24101
X27199Y23101
X27199Y22101
X27699Y19601
X27699Y18601
X27699Y17601
X27699Y16601
X27699Y15601
X27699Y14601
X27699Y13601
X27699Y12601
X24699Y12601
X24699Y13601
X24699Y14601
X24699Y15601
X24699Y16601
X24699Y17601
X24699Y18601
X24699Y19601
T04
X32699Y19101
X32699Y20101
X32699Y21101
X32699Y22601
X32699Y23601
X32699Y24601
X32699Y25601
X32699Y27101
X32699Y28101
X32699Y29101
X32699Y30101
X35699Y30101
X35699Y29101
X35699Y28101
X35699Y27101
X35699Y25601
X35699Y24601
X35699Y23601
X35699Y22601
X35699Y21101
X35699Y20101
X35699Y19101
X35699Y18101
X35699Y17101
X35699Y16101
X35699Y15101
X35699Y14101
X32699Y14101
X32699Y15101
X32699Y16101
X32699Y17101
X32699Y18101
X13699Y18601
X13699Y21601
T05
X8199Y15651
X8199Y14551
X6199Y14551
X6199Y15651
X6199Y7171
X6199Y6101
X6199Y5031
X8199Y5031
X8199Y6101
X8199Y7171
X10199Y7171
X10199Y6101
X10199Y5031
X12199Y5031
X12199Y6101
X12199Y7171
X14199Y7171
X14199Y6101
X14199Y5031
X16199Y5031
X16199Y6101
X16199Y7171
X18199Y7171
X18199Y6101
X18199Y5031
X20199Y5031
X20199Y6101
X20199Y7171
X22199Y7171
X22199Y6101
X22199Y5031
X24199Y5031
X24199Y6101
X24199Y7171
X26199Y7171
X26199Y6101
X26199Y5031
X28199Y5031
X28199Y6101
X28199Y7171
X30199Y7171
X30199Y6101
X30199Y5031
X32199Y5031
X32199Y6101
X32199Y7171
X34199Y7171
X34199Y6101
X34199Y5031
X36199Y5031
X36199Y6101
X36199Y7171
X38199Y7171
X38199Y6101
X38199Y5031
T06
X4199Y19101
X3199Y19101
X2199Y19101
X2199Y8101
X2199Y5101
T07
X8546Y24687
X7573Y25683
X10518Y25680
X12483Y24691
X13483Y25683
X12479Y29613
X8546Y29613
T08
X2699Y1601
X3199Y25001
X3199Y29601
X38199Y29601
X38699Y1601
M30
