G75*
G70*
%OFA0B0*%
%FSLAX24Y24*%
%IPPOS*%
%LPD*%
%AMOC8*
5,1,8,0,0,1.08239X$1,22.5*
%
%ADD10C,0.0050*%
%ADD11C,0.0100*%
%ADD12C,0.0060*%
%ADD13C,0.0080*%
%ADD14C,0.0020*%
%ADD15R,0.0300X0.0250*%
%ADD16R,0.0500X0.1100*%
%ADD17C,0.0160*%
D10*
X006353Y024113D02*
X014699Y024113D01*
X014699Y030601D01*
X006353Y030601D01*
X006353Y024113D01*
D11*
X009071Y027499D02*
X009351Y027499D01*
X009444Y027592D01*
X009444Y027966D01*
X009351Y028059D01*
X009071Y028059D01*
X009071Y027499D01*
X009679Y027499D02*
X009865Y027499D01*
X009772Y027499D02*
X009772Y028059D01*
X009679Y028059D02*
X009865Y028059D01*
X010084Y028059D02*
X010457Y027499D01*
X010457Y028059D01*
X010691Y027779D02*
X011065Y027779D01*
X011299Y027779D02*
X011486Y027872D01*
X011579Y027872D01*
X011673Y027779D01*
X011673Y027592D01*
X011579Y027499D01*
X011392Y027499D01*
X011299Y027592D01*
X011299Y027779D02*
X011299Y028059D01*
X011673Y028059D01*
X010084Y028059D02*
X010084Y027499D01*
X008699Y016151D02*
X007699Y016151D01*
X007699Y014051D01*
X008699Y014051D01*
X008699Y016151D01*
X008449Y015101D02*
X007949Y015101D01*
X006449Y015101D02*
X005949Y015101D01*
X005699Y014051D02*
X005699Y016151D01*
X006699Y016151D01*
X006699Y014051D01*
X005699Y014051D01*
D12*
X008399Y018901D02*
X008399Y021301D01*
X008401Y021357D01*
X008407Y021412D01*
X008416Y021467D01*
X008430Y021522D01*
X008447Y021575D01*
X008468Y021626D01*
X008493Y021677D01*
X008521Y021725D01*
X008552Y021771D01*
X008586Y021815D01*
X008624Y021857D01*
X008664Y021896D01*
X008706Y021931D01*
X008752Y021964D01*
X008799Y021994D01*
X008848Y022020D01*
X008899Y022043D01*
X008952Y022062D01*
X009005Y022077D01*
X009060Y022089D01*
X009115Y022097D01*
X009171Y022101D01*
X009227Y022101D01*
X009283Y022097D01*
X009338Y022089D01*
X009393Y022077D01*
X009446Y022062D01*
X009499Y022043D01*
X009550Y022020D01*
X009599Y021994D01*
X009646Y021964D01*
X009692Y021931D01*
X009734Y021896D01*
X009774Y021857D01*
X009812Y021815D01*
X009846Y021771D01*
X009877Y021725D01*
X009905Y021677D01*
X009930Y021626D01*
X009951Y021575D01*
X009968Y021522D01*
X009982Y021467D01*
X009991Y021412D01*
X009997Y021357D01*
X009999Y021301D01*
X009999Y018901D01*
X009997Y018845D01*
X009991Y018790D01*
X009982Y018735D01*
X009968Y018680D01*
X009951Y018627D01*
X009930Y018576D01*
X009905Y018525D01*
X009877Y018477D01*
X009846Y018431D01*
X009812Y018387D01*
X009774Y018345D01*
X009734Y018306D01*
X009692Y018271D01*
X009646Y018238D01*
X009599Y018208D01*
X009550Y018182D01*
X009499Y018159D01*
X009446Y018140D01*
X009393Y018125D01*
X009338Y018113D01*
X009283Y018105D01*
X009227Y018101D01*
X009171Y018101D01*
X009115Y018105D01*
X009060Y018113D01*
X009005Y018125D01*
X008952Y018140D01*
X008899Y018159D01*
X008848Y018182D01*
X008799Y018208D01*
X008752Y018238D01*
X008706Y018271D01*
X008664Y018306D01*
X008624Y018345D01*
X008586Y018387D01*
X008552Y018431D01*
X008521Y018477D01*
X008493Y018525D01*
X008468Y018576D01*
X008447Y018627D01*
X008430Y018680D01*
X008416Y018735D01*
X008407Y018790D01*
X008401Y018845D01*
X008399Y018901D01*
X009199Y019551D02*
X009199Y019831D01*
X009599Y019831D01*
X009599Y019971D02*
X009599Y020221D01*
X008799Y020221D01*
X008799Y019971D01*
X009599Y019971D01*
X009599Y020371D02*
X009199Y020371D01*
X009199Y020651D01*
X009199Y020371D02*
X008799Y020371D01*
X008799Y019831D02*
X009199Y019831D01*
X005249Y020101D02*
X005249Y025001D01*
X004899Y025001D01*
X004899Y025601D01*
X005249Y025601D01*
X005249Y026351D01*
X001149Y026351D01*
X001149Y025601D01*
X001499Y025601D01*
X001499Y025001D01*
X001149Y025001D01*
X001149Y020101D01*
X005249Y020101D01*
X002489Y025001D02*
X002491Y025054D01*
X002497Y025107D01*
X002507Y025159D01*
X002521Y025210D01*
X002538Y025260D01*
X002559Y025309D01*
X002584Y025356D01*
X002612Y025401D01*
X002644Y025444D01*
X002679Y025484D01*
X002716Y025521D01*
X002756Y025556D01*
X002799Y025588D01*
X002844Y025616D01*
X002891Y025641D01*
X002940Y025662D01*
X002990Y025679D01*
X003041Y025693D01*
X003093Y025703D01*
X003146Y025709D01*
X003199Y025711D01*
X003252Y025709D01*
X003305Y025703D01*
X003357Y025693D01*
X003408Y025679D01*
X003458Y025662D01*
X003507Y025641D01*
X003554Y025616D01*
X003599Y025588D01*
X003642Y025556D01*
X003682Y025521D01*
X003719Y025484D01*
X003754Y025444D01*
X003786Y025401D01*
X003814Y025356D01*
X003839Y025309D01*
X003860Y025260D01*
X003877Y025210D01*
X003891Y025159D01*
X003901Y025107D01*
X003907Y025054D01*
X003909Y025001D01*
X003907Y024948D01*
X003901Y024895D01*
X003891Y024843D01*
X003877Y024792D01*
X003860Y024742D01*
X003839Y024693D01*
X003814Y024646D01*
X003786Y024601D01*
X003754Y024558D01*
X003719Y024518D01*
X003682Y024481D01*
X003642Y024446D01*
X003599Y024414D01*
X003554Y024386D01*
X003507Y024361D01*
X003458Y024340D01*
X003408Y024323D01*
X003357Y024309D01*
X003305Y024299D01*
X003252Y024293D01*
X003199Y024291D01*
X003146Y024293D01*
X003093Y024299D01*
X003041Y024309D01*
X002990Y024323D01*
X002940Y024340D01*
X002891Y024361D01*
X002844Y024386D01*
X002799Y024414D01*
X002756Y024446D01*
X002716Y024481D01*
X002679Y024518D01*
X002644Y024558D01*
X002612Y024601D01*
X002584Y024646D01*
X002559Y024693D01*
X002538Y024742D01*
X002521Y024792D01*
X002507Y024843D01*
X002497Y024895D01*
X002491Y024948D01*
X002489Y025001D01*
X013479Y020238D02*
X013536Y020294D01*
X013763Y020067D01*
X013819Y020124D01*
X013819Y020238D01*
X013763Y020294D01*
X013536Y020294D01*
X013479Y020238D02*
X013479Y020124D01*
X013536Y020067D01*
X013763Y020067D01*
X013819Y019926D02*
X013819Y019699D01*
X013593Y019926D01*
X013536Y019926D01*
X013479Y019869D01*
X013479Y019756D01*
X013536Y019699D01*
X013536Y019558D02*
X013479Y019501D01*
X013479Y019387D01*
X013536Y019331D01*
X013536Y019558D02*
X013593Y019558D01*
X013819Y019331D01*
X013819Y019558D01*
X024549Y021601D02*
X026849Y021601D01*
X026849Y029601D01*
X026099Y029601D01*
X026097Y029562D01*
X026091Y029523D01*
X026082Y029485D01*
X026069Y029448D01*
X026052Y029412D01*
X026032Y029379D01*
X026008Y029347D01*
X025982Y029318D01*
X025953Y029292D01*
X025921Y029268D01*
X025888Y029248D01*
X025852Y029231D01*
X025815Y029218D01*
X025777Y029209D01*
X025738Y029203D01*
X025699Y029201D01*
X025660Y029203D01*
X025621Y029209D01*
X025583Y029218D01*
X025546Y029231D01*
X025510Y029248D01*
X025477Y029268D01*
X025445Y029292D01*
X025416Y029318D01*
X025390Y029347D01*
X025366Y029379D01*
X025346Y029412D01*
X025329Y029448D01*
X025316Y029485D01*
X025307Y029523D01*
X025301Y029562D01*
X025299Y029601D01*
X024549Y029601D01*
X024549Y021601D01*
X025049Y020101D02*
X025799Y020101D01*
X025801Y020062D01*
X025807Y020023D01*
X025816Y019985D01*
X025829Y019948D01*
X025846Y019912D01*
X025866Y019879D01*
X025890Y019847D01*
X025916Y019818D01*
X025945Y019792D01*
X025977Y019768D01*
X026010Y019748D01*
X026046Y019731D01*
X026083Y019718D01*
X026121Y019709D01*
X026160Y019703D01*
X026199Y019701D01*
X026238Y019703D01*
X026277Y019709D01*
X026315Y019718D01*
X026352Y019731D01*
X026388Y019748D01*
X026421Y019768D01*
X026453Y019792D01*
X026482Y019818D01*
X026508Y019847D01*
X026532Y019879D01*
X026552Y019912D01*
X026569Y019948D01*
X026582Y019985D01*
X026591Y020023D01*
X026597Y020062D01*
X026599Y020101D01*
X027349Y020101D01*
X027349Y012101D01*
X025049Y012101D01*
X025049Y020101D01*
X033429Y020208D02*
X033543Y020321D01*
X033543Y019981D01*
X033656Y019981D02*
X033429Y019981D01*
X033798Y020037D02*
X034025Y020264D01*
X034025Y020037D01*
X033968Y019981D01*
X033854Y019981D01*
X033798Y020037D01*
X033798Y020264D01*
X033854Y020321D01*
X033968Y020321D01*
X034025Y020264D01*
X034166Y020321D02*
X034166Y019981D01*
X034166Y020094D02*
X034336Y020208D01*
X034166Y020094D02*
X034336Y019981D01*
X034166Y019321D02*
X034166Y018981D01*
X034166Y019094D02*
X034336Y019208D01*
X034166Y019094D02*
X034336Y018981D01*
X034025Y019037D02*
X033968Y018981D01*
X033854Y018981D01*
X033798Y019037D01*
X034025Y019264D01*
X034025Y019037D01*
X034025Y019264D02*
X033968Y019321D01*
X033854Y019321D01*
X033798Y019264D01*
X033798Y019037D01*
X033656Y018981D02*
X033429Y018981D01*
X033543Y018981D02*
X033543Y019321D01*
X033429Y019208D01*
X033543Y018321D02*
X033429Y018208D01*
X033543Y018321D02*
X033543Y017981D01*
X033656Y017981D02*
X033429Y017981D01*
X033798Y018037D02*
X033798Y018264D01*
X033854Y018321D01*
X033968Y018321D01*
X034025Y018264D01*
X033798Y018037D01*
X033854Y017981D01*
X033968Y017981D01*
X034025Y018037D01*
X034025Y018264D01*
X034166Y018321D02*
X034166Y017981D01*
X034166Y018094D02*
X034336Y018208D01*
X034166Y018094D02*
X034336Y017981D01*
X034166Y017321D02*
X034166Y016981D01*
X034166Y017094D02*
X034336Y017208D01*
X034166Y017094D02*
X034336Y016981D01*
X034025Y017037D02*
X034025Y017264D01*
X033798Y017037D01*
X033854Y016981D01*
X033968Y016981D01*
X034025Y017037D01*
X033798Y017037D02*
X033798Y017264D01*
X033854Y017321D01*
X033968Y017321D01*
X034025Y017264D01*
X033656Y016981D02*
X033429Y016981D01*
X033543Y016981D02*
X033543Y017321D01*
X033429Y017208D01*
X033543Y016321D02*
X033543Y015981D01*
X033656Y015981D02*
X033429Y015981D01*
X033429Y016208D02*
X033543Y016321D01*
X033798Y016264D02*
X033854Y016321D01*
X033968Y016321D01*
X034025Y016264D01*
X033798Y016037D01*
X033854Y015981D01*
X033968Y015981D01*
X034025Y016037D01*
X034025Y016264D01*
X034166Y016321D02*
X034166Y015981D01*
X034166Y016094D02*
X034336Y016208D01*
X034166Y016094D02*
X034336Y015981D01*
X033798Y016037D02*
X033798Y016264D01*
X034099Y015221D02*
X034099Y014881D01*
X033986Y014881D02*
X034213Y014881D01*
X034354Y014937D02*
X034581Y015164D01*
X034581Y014937D01*
X034524Y014881D01*
X034411Y014881D01*
X034354Y014937D01*
X034354Y015164D01*
X034411Y015221D01*
X034524Y015221D01*
X034581Y015164D01*
X034722Y015221D02*
X034722Y014881D01*
X034722Y014994D02*
X034893Y014881D01*
X034722Y014994D02*
X034893Y015108D01*
X034099Y015221D02*
X033986Y015108D01*
X034099Y014221D02*
X034099Y013881D01*
X033986Y013881D02*
X034213Y013881D01*
X034354Y013937D02*
X034581Y014164D01*
X034581Y013937D01*
X034524Y013881D01*
X034411Y013881D01*
X034354Y013937D01*
X034354Y014164D01*
X034411Y014221D01*
X034524Y014221D01*
X034581Y014164D01*
X034722Y014221D02*
X034722Y013881D01*
X034722Y013994D02*
X034893Y014108D01*
X034722Y013994D02*
X034893Y013881D01*
X034099Y014221D02*
X033986Y014108D01*
X033968Y020981D02*
X033854Y020981D01*
X033798Y021037D01*
X034025Y021264D01*
X034025Y021037D01*
X033968Y020981D01*
X033798Y021037D02*
X033798Y021264D01*
X033854Y021321D01*
X033968Y021321D01*
X034025Y021264D01*
X034166Y021321D02*
X034166Y020981D01*
X034166Y021094D02*
X034336Y021208D01*
X034166Y021094D02*
X034336Y020981D01*
X033656Y020981D02*
X033429Y020981D01*
X033543Y020981D02*
X033543Y021321D01*
X033429Y021208D01*
X033429Y022481D02*
X033656Y022481D01*
X033543Y022481D02*
X033543Y022821D01*
X033429Y022708D01*
X033798Y022764D02*
X033854Y022821D01*
X033968Y022821D01*
X034025Y022764D01*
X033798Y022537D01*
X033854Y022481D01*
X033968Y022481D01*
X034025Y022537D01*
X034025Y022764D01*
X034166Y022821D02*
X034166Y022481D01*
X034166Y022594D02*
X034336Y022708D01*
X034166Y022594D02*
X034336Y022481D01*
X033798Y022537D02*
X033798Y022764D01*
X033854Y023481D02*
X033798Y023537D01*
X034025Y023764D01*
X034025Y023537D01*
X033968Y023481D01*
X033854Y023481D01*
X033798Y023537D02*
X033798Y023764D01*
X033854Y023821D01*
X033968Y023821D01*
X034025Y023764D01*
X034166Y023821D02*
X034166Y023481D01*
X034166Y023594D02*
X034336Y023708D01*
X034166Y023594D02*
X034336Y023481D01*
X033656Y023481D02*
X033429Y023481D01*
X033543Y023481D02*
X033543Y023821D01*
X033429Y023708D01*
X033429Y024481D02*
X033656Y024481D01*
X033543Y024481D02*
X033543Y024821D01*
X033429Y024708D01*
X033798Y024764D02*
X033798Y024537D01*
X034025Y024764D01*
X034025Y024537D01*
X033968Y024481D01*
X033854Y024481D01*
X033798Y024537D01*
X033798Y024764D02*
X033854Y024821D01*
X033968Y024821D01*
X034025Y024764D01*
X034166Y024821D02*
X034166Y024481D01*
X034166Y024594D02*
X034336Y024708D01*
X034166Y024594D02*
X034336Y024481D01*
X034336Y025481D02*
X034166Y025594D01*
X034336Y025708D01*
X034166Y025821D02*
X034166Y025481D01*
X034025Y025537D02*
X033968Y025481D01*
X033854Y025481D01*
X033798Y025537D01*
X034025Y025764D01*
X034025Y025537D01*
X033798Y025537D02*
X033798Y025764D01*
X033854Y025821D01*
X033968Y025821D01*
X034025Y025764D01*
X033656Y025481D02*
X033429Y025481D01*
X033543Y025481D02*
X033543Y025821D01*
X033429Y025708D01*
X033986Y026881D02*
X034213Y026881D01*
X034099Y026881D02*
X034099Y027221D01*
X033986Y027108D01*
X034354Y027164D02*
X034411Y027221D01*
X034524Y027221D01*
X034581Y027164D01*
X034354Y026937D01*
X034411Y026881D01*
X034524Y026881D01*
X034581Y026937D01*
X034581Y027164D01*
X034722Y027221D02*
X034722Y026881D01*
X034722Y026994D02*
X034893Y027108D01*
X034722Y026994D02*
X034893Y026881D01*
X034354Y026937D02*
X034354Y027164D01*
X034411Y027881D02*
X034354Y027937D01*
X034581Y028164D01*
X034581Y027937D01*
X034524Y027881D01*
X034411Y027881D01*
X034354Y027937D02*
X034354Y028164D01*
X034411Y028221D01*
X034524Y028221D01*
X034581Y028164D01*
X034722Y028221D02*
X034722Y027881D01*
X034722Y027994D02*
X034893Y028108D01*
X034722Y027994D02*
X034893Y027881D01*
X034213Y027881D02*
X033986Y027881D01*
X034099Y027881D02*
X034099Y028221D01*
X033986Y028108D01*
X033968Y028981D02*
X033854Y028981D01*
X033798Y029037D01*
X034025Y029264D01*
X034025Y029037D01*
X033968Y028981D01*
X033798Y029037D02*
X033798Y029264D01*
X033854Y029321D01*
X033968Y029321D01*
X034025Y029264D01*
X034166Y029321D02*
X034166Y028981D01*
X034166Y029094D02*
X034336Y029208D01*
X034166Y029094D02*
X034336Y028981D01*
X033656Y028981D02*
X033429Y028981D01*
X033543Y028981D02*
X033543Y029321D01*
X033429Y029208D01*
X033429Y029981D02*
X033656Y029981D01*
X033543Y029981D02*
X033543Y030321D01*
X033429Y030208D01*
X033798Y030264D02*
X033854Y030321D01*
X033968Y030321D01*
X034025Y030264D01*
X033798Y030037D01*
X033854Y029981D01*
X033968Y029981D01*
X034025Y030037D01*
X034025Y030264D01*
X034166Y030321D02*
X034166Y029981D01*
X034166Y030094D02*
X034336Y030208D01*
X034166Y030094D02*
X034336Y029981D01*
X033798Y030037D02*
X033798Y030264D01*
X002699Y008601D02*
X002699Y008401D01*
X002699Y008601D02*
X002499Y008601D01*
X001899Y008601D02*
X001699Y008601D01*
X001699Y008401D01*
X001699Y007801D02*
X001699Y007601D01*
X001899Y007601D01*
X002499Y007601D02*
X002699Y007601D01*
X002699Y007801D01*
X002699Y005601D02*
X002499Y005601D01*
X002699Y005601D02*
X002699Y005401D01*
X002699Y004801D02*
X002699Y004601D01*
X002499Y004601D01*
X001899Y004601D02*
X001699Y004601D01*
X001699Y004801D01*
X001699Y005401D02*
X001699Y005601D01*
X001899Y005601D01*
D13*
X005343Y003811D02*
X007056Y003811D01*
X007056Y008390D01*
X005343Y008390D01*
X005343Y003811D01*
X007343Y003811D02*
X009056Y003811D01*
X009056Y008390D01*
X007343Y008390D01*
X007343Y003811D01*
X009343Y003811D02*
X011056Y003811D01*
X011056Y008390D01*
X009343Y008390D01*
X009343Y003811D01*
X011343Y003811D02*
X013056Y003811D01*
X013056Y008390D01*
X011343Y008390D01*
X011343Y003811D01*
X013343Y003811D02*
X015056Y003811D01*
X015056Y008390D01*
X013343Y008390D01*
X013343Y003811D01*
X015343Y003811D02*
X017056Y003811D01*
X017056Y008390D01*
X015343Y008390D01*
X015343Y003811D01*
X017343Y003811D02*
X019056Y003811D01*
X019056Y008390D01*
X017343Y008390D01*
X017343Y003811D01*
X019343Y003811D02*
X021056Y003811D01*
X021056Y008390D01*
X019343Y008390D01*
X019343Y003811D01*
X021343Y003811D02*
X023056Y003811D01*
X023056Y008390D01*
X021343Y008390D01*
X021343Y003811D01*
X023343Y003811D02*
X025056Y003811D01*
X025056Y008390D01*
X023343Y008390D01*
X023343Y003811D01*
X025343Y003811D02*
X027056Y003811D01*
X027056Y008390D01*
X025343Y008390D01*
X025343Y003811D01*
X027343Y003811D02*
X029056Y003811D01*
X029056Y008390D01*
X027343Y008390D01*
X027343Y003811D01*
X029343Y003811D02*
X031056Y003811D01*
X031056Y008390D01*
X029343Y008390D01*
X029343Y003811D01*
X031343Y003811D02*
X033056Y003811D01*
X033056Y008390D01*
X031343Y008390D01*
X031343Y003811D01*
X033343Y003811D02*
X035056Y003811D01*
X035056Y008390D01*
X033343Y008390D01*
X033343Y003811D01*
X035343Y003811D02*
X037056Y003811D01*
X037056Y008390D01*
X035343Y008390D01*
X035343Y003811D01*
X037343Y003811D02*
X039056Y003811D01*
X039056Y008390D01*
X037343Y008390D01*
X037343Y003811D01*
X035199Y013801D02*
X033199Y013801D01*
X033199Y014101D01*
X033099Y014101D01*
X033199Y014101D02*
X033199Y014401D01*
X035199Y014401D01*
X035199Y014101D01*
X035299Y014101D01*
X035199Y014101D02*
X035199Y013801D01*
X035199Y014801D02*
X035199Y015101D01*
X035299Y015101D01*
X035199Y015101D02*
X035199Y015401D01*
X033199Y015401D01*
X033199Y015101D01*
X033099Y015101D01*
X033199Y015101D02*
X033199Y014801D01*
X035199Y014801D01*
X035199Y015801D02*
X033199Y015801D01*
X033199Y016101D01*
X033099Y016101D01*
X033199Y016101D02*
X033199Y016401D01*
X035199Y016401D01*
X035199Y016101D01*
X035299Y016101D01*
X035199Y016101D02*
X035199Y015801D01*
X035199Y016801D02*
X033199Y016801D01*
X033199Y017101D01*
X033099Y017101D01*
X033199Y017101D02*
X033199Y017401D01*
X035199Y017401D01*
X035199Y017101D01*
X035299Y017101D01*
X035199Y017101D02*
X035199Y016801D01*
X035199Y017801D02*
X033199Y017801D01*
X033199Y018101D01*
X033099Y018101D01*
X033199Y018101D02*
X033199Y018401D01*
X035199Y018401D01*
X035199Y018101D01*
X035299Y018101D01*
X035199Y018101D02*
X035199Y017801D01*
X035199Y018801D02*
X033199Y018801D01*
X033199Y019101D01*
X033099Y019101D01*
X033199Y019101D02*
X033199Y019401D01*
X035199Y019401D01*
X035199Y019101D01*
X035299Y019101D01*
X035199Y019101D02*
X035199Y018801D01*
X035199Y019801D02*
X033199Y019801D01*
X033199Y020101D01*
X033099Y020101D01*
X033199Y020101D02*
X033199Y020401D01*
X035199Y020401D01*
X035199Y020101D01*
X035299Y020101D01*
X035199Y020101D02*
X035199Y019801D01*
X035199Y020801D02*
X033199Y020801D01*
X033199Y021101D01*
X033099Y021101D01*
X033199Y021101D02*
X033199Y021401D01*
X035199Y021401D01*
X035199Y021101D01*
X035299Y021101D01*
X035199Y021101D02*
X035199Y020801D01*
X035199Y022301D02*
X033199Y022301D01*
X033199Y022601D01*
X033099Y022601D01*
X033199Y022601D02*
X033199Y022901D01*
X035199Y022901D01*
X035199Y022601D01*
X035299Y022601D01*
X035199Y022601D02*
X035199Y022301D01*
X035199Y023301D02*
X033199Y023301D01*
X033199Y023601D01*
X033099Y023601D01*
X033199Y023601D02*
X033199Y023901D01*
X035199Y023901D01*
X035199Y023601D01*
X035299Y023601D01*
X035199Y023601D02*
X035199Y023301D01*
X035199Y024301D02*
X033199Y024301D01*
X033199Y024601D01*
X033099Y024601D01*
X033199Y024601D02*
X033199Y024901D01*
X035199Y024901D01*
X035199Y024601D01*
X035299Y024601D01*
X035199Y024601D02*
X035199Y024301D01*
X035199Y025301D02*
X033199Y025301D01*
X033199Y025601D01*
X033099Y025601D01*
X033199Y025601D02*
X033199Y025901D01*
X035199Y025901D01*
X035199Y025601D01*
X035299Y025601D01*
X035199Y025601D02*
X035199Y025301D01*
X035199Y026801D02*
X035199Y027101D01*
X035299Y027101D01*
X035199Y027101D02*
X035199Y027401D01*
X033199Y027401D01*
X033199Y027101D01*
X033099Y027101D01*
X033199Y027101D02*
X033199Y026801D01*
X035199Y026801D01*
X035199Y027801D02*
X035199Y028101D01*
X035299Y028101D01*
X035199Y028101D02*
X035199Y028401D01*
X033199Y028401D01*
X033199Y028101D01*
X033099Y028101D01*
X033199Y028101D02*
X033199Y027801D01*
X035199Y027801D01*
X035199Y028801D02*
X033199Y028801D01*
X033199Y029101D01*
X033099Y029101D01*
X033199Y029101D02*
X033199Y029401D01*
X035199Y029401D01*
X035199Y029101D01*
X035299Y029101D01*
X035199Y029101D02*
X035199Y028801D01*
X035199Y029801D02*
X033199Y029801D01*
X033199Y030101D01*
X033099Y030101D01*
X033199Y030101D02*
X033199Y030401D01*
X035199Y030401D01*
X035199Y030101D01*
X035299Y030101D01*
X035199Y030101D02*
X035199Y029801D01*
X018899Y030001D02*
X018899Y030101D01*
X018199Y030101D01*
X018197Y030057D01*
X018191Y030014D01*
X018182Y029972D01*
X018169Y029930D01*
X018152Y029890D01*
X018132Y029851D01*
X018109Y029814D01*
X018082Y029780D01*
X018053Y029747D01*
X018020Y029718D01*
X017986Y029691D01*
X017949Y029668D01*
X017910Y029648D01*
X017870Y029631D01*
X017828Y029618D01*
X017786Y029609D01*
X017743Y029603D01*
X017699Y029601D01*
X017655Y029603D01*
X017612Y029609D01*
X017570Y029618D01*
X017528Y029631D01*
X017488Y029648D01*
X017449Y029668D01*
X017412Y029691D01*
X017378Y029718D01*
X017345Y029747D01*
X017316Y029780D01*
X017289Y029814D01*
X017266Y029851D01*
X017246Y029890D01*
X017229Y029930D01*
X017216Y029972D01*
X017207Y030014D01*
X017201Y030057D01*
X017199Y030101D01*
X016499Y030101D01*
X016499Y030001D01*
X013699Y021201D02*
X013699Y021101D01*
X013999Y021101D01*
X013999Y019101D01*
X013699Y019101D01*
X013699Y019001D01*
X013699Y019101D02*
X013399Y019101D01*
X013399Y021101D01*
X013699Y021101D01*
X016499Y016201D02*
X016499Y016101D01*
X018899Y016101D01*
X018899Y016201D01*
X002215Y016101D02*
X002217Y016163D01*
X002223Y016226D01*
X002233Y016287D01*
X002247Y016348D01*
X002264Y016408D01*
X002285Y016467D01*
X002311Y016524D01*
X002339Y016579D01*
X002371Y016633D01*
X002407Y016684D01*
X002445Y016734D01*
X002487Y016780D01*
X002531Y016824D01*
X002579Y016865D01*
X002628Y016903D01*
X002680Y016937D01*
X002734Y016968D01*
X002790Y016996D01*
X002848Y017020D01*
X002907Y017041D01*
X002967Y017057D01*
X003028Y017070D01*
X003090Y017079D01*
X003152Y017084D01*
X003215Y017085D01*
X003277Y017082D01*
X003339Y017075D01*
X003401Y017064D01*
X003461Y017049D01*
X003521Y017031D01*
X003579Y017009D01*
X003636Y016983D01*
X003691Y016953D01*
X003744Y016920D01*
X003795Y016884D01*
X003843Y016845D01*
X003889Y016802D01*
X003932Y016757D01*
X003972Y016709D01*
X004009Y016659D01*
X004043Y016606D01*
X004074Y016552D01*
X004100Y016496D01*
X004124Y016438D01*
X004143Y016378D01*
X004159Y016318D01*
X004171Y016256D01*
X004179Y016195D01*
X004183Y016132D01*
X004183Y016070D01*
X004179Y016007D01*
X004171Y015946D01*
X004159Y015884D01*
X004143Y015824D01*
X004124Y015764D01*
X004100Y015706D01*
X004074Y015650D01*
X004043Y015596D01*
X004009Y015543D01*
X003972Y015493D01*
X003932Y015445D01*
X003889Y015400D01*
X003843Y015357D01*
X003795Y015318D01*
X003744Y015282D01*
X003691Y015249D01*
X003636Y015219D01*
X003579Y015193D01*
X003521Y015171D01*
X003461Y015153D01*
X003401Y015138D01*
X003339Y015127D01*
X003277Y015120D01*
X003215Y015117D01*
X003152Y015118D01*
X003090Y015123D01*
X003028Y015132D01*
X002967Y015145D01*
X002907Y015161D01*
X002848Y015182D01*
X002790Y015206D01*
X002734Y015234D01*
X002680Y015265D01*
X002628Y015299D01*
X002579Y015337D01*
X002531Y015378D01*
X002487Y015422D01*
X002445Y015468D01*
X002407Y015518D01*
X002371Y015569D01*
X002339Y015623D01*
X002311Y015678D01*
X002285Y015735D01*
X002264Y015794D01*
X002247Y015854D01*
X002233Y015915D01*
X002223Y015976D01*
X002217Y016039D01*
X002215Y016101D01*
X002499Y016651D02*
X002899Y016651D01*
X002899Y012651D02*
X002499Y012651D01*
X002215Y012101D02*
X002217Y012163D01*
X002223Y012226D01*
X002233Y012287D01*
X002247Y012348D01*
X002264Y012408D01*
X002285Y012467D01*
X002311Y012524D01*
X002339Y012579D01*
X002371Y012633D01*
X002407Y012684D01*
X002445Y012734D01*
X002487Y012780D01*
X002531Y012824D01*
X002579Y012865D01*
X002628Y012903D01*
X002680Y012937D01*
X002734Y012968D01*
X002790Y012996D01*
X002848Y013020D01*
X002907Y013041D01*
X002967Y013057D01*
X003028Y013070D01*
X003090Y013079D01*
X003152Y013084D01*
X003215Y013085D01*
X003277Y013082D01*
X003339Y013075D01*
X003401Y013064D01*
X003461Y013049D01*
X003521Y013031D01*
X003579Y013009D01*
X003636Y012983D01*
X003691Y012953D01*
X003744Y012920D01*
X003795Y012884D01*
X003843Y012845D01*
X003889Y012802D01*
X003932Y012757D01*
X003972Y012709D01*
X004009Y012659D01*
X004043Y012606D01*
X004074Y012552D01*
X004100Y012496D01*
X004124Y012438D01*
X004143Y012378D01*
X004159Y012318D01*
X004171Y012256D01*
X004179Y012195D01*
X004183Y012132D01*
X004183Y012070D01*
X004179Y012007D01*
X004171Y011946D01*
X004159Y011884D01*
X004143Y011824D01*
X004124Y011764D01*
X004100Y011706D01*
X004074Y011650D01*
X004043Y011596D01*
X004009Y011543D01*
X003972Y011493D01*
X003932Y011445D01*
X003889Y011400D01*
X003843Y011357D01*
X003795Y011318D01*
X003744Y011282D01*
X003691Y011249D01*
X003636Y011219D01*
X003579Y011193D01*
X003521Y011171D01*
X003461Y011153D01*
X003401Y011138D01*
X003339Y011127D01*
X003277Y011120D01*
X003215Y011117D01*
X003152Y011118D01*
X003090Y011123D01*
X003028Y011132D01*
X002967Y011145D01*
X002907Y011161D01*
X002848Y011182D01*
X002790Y011206D01*
X002734Y011234D01*
X002680Y011265D01*
X002628Y011299D01*
X002579Y011337D01*
X002531Y011378D01*
X002487Y011422D01*
X002445Y011468D01*
X002407Y011518D01*
X002371Y011569D01*
X002339Y011623D01*
X002311Y011678D01*
X002285Y011735D01*
X002264Y011794D01*
X002247Y011854D01*
X002233Y011915D01*
X002223Y011976D01*
X002217Y012039D01*
X002215Y012101D01*
D14*
X001399Y020351D02*
X001399Y023601D01*
X004999Y023601D01*
X004999Y020351D01*
X001399Y020351D01*
D15*
X002199Y018876D03*
X003199Y018876D03*
X004199Y018876D03*
D16*
X004199Y019551D03*
X003199Y019551D03*
X002199Y019551D03*
D17*
X008199Y018901D02*
X008199Y021301D01*
X008201Y021363D01*
X008207Y021424D01*
X008216Y021485D01*
X008229Y021545D01*
X008246Y021604D01*
X008267Y021662D01*
X008291Y021719D01*
X008318Y021774D01*
X008349Y021827D01*
X008383Y021879D01*
X008420Y021928D01*
X008460Y021975D01*
X008503Y022019D01*
X008548Y022060D01*
X008596Y022099D01*
X008647Y022135D01*
X008699Y022167D01*
X008753Y022196D01*
X008809Y022222D01*
X008867Y022244D01*
X008925Y022263D01*
X008985Y022278D01*
X009046Y022289D01*
X009107Y022297D01*
X009168Y022301D01*
X009230Y022301D01*
X009291Y022297D01*
X009352Y022289D01*
X009413Y022278D01*
X009473Y022263D01*
X009531Y022244D01*
X009589Y022222D01*
X009645Y022196D01*
X009699Y022167D01*
X009751Y022135D01*
X009802Y022099D01*
X009850Y022060D01*
X009895Y022019D01*
X009938Y021975D01*
X009978Y021928D01*
X010015Y021879D01*
X010049Y021827D01*
X010080Y021774D01*
X010107Y021719D01*
X010131Y021662D01*
X010152Y021604D01*
X010169Y021545D01*
X010182Y021485D01*
X010191Y021424D01*
X010197Y021363D01*
X010199Y021301D01*
X010199Y018901D01*
X010197Y018839D01*
X010191Y018778D01*
X010182Y018717D01*
X010169Y018657D01*
X010152Y018598D01*
X010131Y018540D01*
X010107Y018483D01*
X010080Y018428D01*
X010049Y018375D01*
X010015Y018323D01*
X009978Y018274D01*
X009938Y018227D01*
X009895Y018183D01*
X009850Y018142D01*
X009802Y018103D01*
X009751Y018067D01*
X009699Y018035D01*
X009645Y018006D01*
X009589Y017980D01*
X009531Y017958D01*
X009473Y017939D01*
X009413Y017924D01*
X009352Y017913D01*
X009291Y017905D01*
X009230Y017901D01*
X009168Y017901D01*
X009107Y017905D01*
X009046Y017913D01*
X008985Y017924D01*
X008925Y017939D01*
X008867Y017958D01*
X008809Y017980D01*
X008753Y018006D01*
X008699Y018035D01*
X008647Y018067D01*
X008596Y018103D01*
X008548Y018142D01*
X008503Y018183D01*
X008460Y018227D01*
X008420Y018274D01*
X008383Y018323D01*
X008349Y018375D01*
X008318Y018428D01*
X008291Y018483D01*
X008267Y018540D01*
X008246Y018598D01*
X008229Y018657D01*
X008216Y018717D01*
X008207Y018778D01*
X008201Y018839D01*
X008199Y018901D01*
M02*
